<mxfile host="app.diagrams.net" modified="2023-04-24T11:40:44.304Z" agent="Mozilla/5.0 (Macintosh; Intel Mac OS X 10_15_7) AppleWebKit/605.1.15 (KHTML, like Gecko) Version/16.3 Safari/605.1.15" version="21.2.1" etag="07cUzC3bRGEnRMUBrunD" type="github">
  <diagram name="第 1 页" id="O9UZCYLfuRYpe5k2LAQW">
    <mxGraphModel>
      <root>
        <mxCell id="0" />
        <mxCell id="1" parent="0" />
      </root>
    </mxGraphModel>
  </diagram>
</mxfile>
